<?xml version="1.0" encoding="UTF-8" standalone="no"?>
<svg
   id="Layer_1"
   data-name="Layer 1"
   viewBox="0 0 2794 1424"
   version="1.1"
   sodipodi:docname="logo-utec-h_2.svg"
   inkscape:version="1.1.1 (3bf5ae0d25, 2021-09-20)"
   xmlns:inkscape="http://www.inkscape.org/namespaces/inkscape"
   xmlns:sodipodi="http://sodipodi.sourceforge.net/DTD/sodipodi-0.dtd"
   xmlns="http://www.w3.org/2000/svg"
   xmlns:svg="http://www.w3.org/2000/svg">
  <sodipodi:namedview
     id="namedview99"
     pagecolor="#ffffff"
     bordercolor="#666666"
     borderopacity="1.0"
     inkscape:pageshadow="2"
     inkscape:pageopacity="0.0"
     inkscape:pagecheckerboard="0"
     showgrid="false"
     inkscape:zoom="0.15551794"
     inkscape:cx="2459.5234"
     inkscape:cy="752.3248"
     inkscape:window-width="1500"
     inkscape:window-height="948"
     inkscape:window-x="-6"
     inkscape:window-y="-6"
     inkscape:window-maximized="1"
     inkscape:current-layer="Layer_1"
     inkscape:snap-global="false" />
  <defs
     id="defs4">
    <style
       id="style2">
      .cls-1 {
        fill: #00bfff;
      }

      .cls-2 {
        fill: #231f20;
      }
    </style>
  </defs>
  <rect
     style="fill:#ffffff;fill-opacity:0.879177;stroke:none;stroke-width:30.1262;stroke-linecap:round"
     id="rect892"
     width="3568.3376"
     height="929.03766"
     x="75.779999"
     y="458.81485"
     inkscape:export-filename="D:\UTEC\logo.png"
     inkscape:export-xdpi="121.85"
     inkscape:export-ydpi="121.85" />
  <g
     id="g922"
     inkscape:export-filename="D:\UTEC\logo.png"
     inkscape:export-xdpi="121.85"
     inkscape:export-ydpi="121.85"
     transform="matrix(0.81,0,0,0.81,693.6089,235.33961)">
    <g
       id="g1024"
       transform="translate(844.04557,-9.093572)">
      <polygon
         class="cls-1"
         points="2109.82,453.56 2109.82,739.51 2069.27,765.36 2069.27,479.54 2005.57,520.1 1880.88,599.47 1880.88,1126.97 2299.49,860.39 2299.49,332.84 "
         id="polygon6"
         transform="translate(81.842148,301.54109)" />
      <polygon
         class="cls-2"
         points="2109.82,739.52 2109.82,453.57 2299.49,332.84 1880.88,66.27 1880.88,258.59 2005.57,338 2005.57,520.1 2069.27,479.54 2069.27,765.36 "
         id="polygon8"
         transform="translate(81.842148,301.54109)" />
      <polygon
         class="cls-2"
         points="2299.49,860.39 2718.23,1126.97 2718.23,886.75 2490.67,741.62 2490.67,694.16 2718.23,839.35 2718.23,599.47 2562.86,500.51 2299.49,332.84 "
         id="polygon10"
         transform="translate(81.842148,301.54109)" />
      <g
         id="g86"
         transform="translate(81.842148,301.54109)">
        <polygon
           class="cls-1"
           points="2718.23,211.36 2718.23,66.27 2299.49,332.84 2562.86,500.52 2718.23,401.68 2718.23,258.6 2515.33,387.94 2515.33,340.66 "
           id="polygon82" />
        <polygon
           class="cls-1"
           points="2617.35,535.21 2718.23,599.47 2718.23,470.88 "
           id="polygon84" />
      </g>
    </g>
  </g>
  <g
     id="g964"
     transform="translate(1105.9817,48.165314)"
     inkscape:export-filename="D:\UTEC\logo.png"
     inkscape:export-xdpi="121.85"
     inkscape:export-ydpi="121.85">
    <g
       id="g80">
      <path
         class="cls-2"
         d="m 122.3,1175.08 v -48.05 h 10.47 v 47.72 c 0,19.22 -9.18,28.5 -27.86,28.5 -18.68,0 -29.14,-9.28 -29.14,-28.5 v -47.72 h 11.76 v 48.05 c 0,15 7.45,18.89 18.03,18.89 10.58,0 16.74,-4.11 16.74,-18.89"
         id="path12" />
      <polygon
         class="cls-2"
         points="204.7,1202.6 168.97,1142.04 168.76,1142.04 168.76,1202.6 158.72,1202.6 158.72,1127.03 172.22,1127.03 205.14,1182.64 205.36,1182.64 205.36,1127.03 215.51,1127.03 215.51,1202.6 "
         id="polygon14" />
      <rect
         class="cls-2"
         x="241.99001"
         y="1127.03"
         width="11.87"
         height="75.57"
         id="rect16" />
      <polygon
         class="cls-2"
         points="306.67,1188.14 306.9,1188.14 327.3,1127.03 337.23,1127.03 337.23,1130.6 312.3,1202.61 300.09,1202.61 275.37,1130.6 275.37,1127.03 286.38,1127.03 "
         id="polygon18" />
      <polygon
         class="cls-2"
         points="370.19,1168.27 370.19,1193.74 406.03,1193.74 406.03,1202.6 358.54,1202.6 358.54,1127.03 404.85,1127.03 404.85,1136.1 370.19,1136.1 370.19,1159.64 395.56,1159.64 395.56,1168.27 "
         id="polygon20" />
      <path
         class="cls-2"
         d="m 440.07,1162.45 h 10.36 c 10.26,0 15.45,-3.66 15.45,-13.29 0,-9.63 -5.51,-13.17 -15.45,-13.17 h -10.36 z m 14.25,8.52 c -1.07,0.12 -2.26,0.12 -3.56,0.12 h -10.69 v 31.52 h -11.66 v -75.58 h 22.35 c 16.73,0 26.98,6.7 26.98,21.49 0,10.37 -4.53,16.95 -12.41,20.19 l 16.3,30.33 v 3.57 h -10.68 z"
         id="path22" />
      <path
         class="cls-2"
         d="m 499.59,1196.87 v -9.5 h 4.1 c 3.46,3.68 9.17,6.91 18.57,6.91 9.4,0 15.54,-3.99 15.54,-12.21 0,-9.39 -7.66,-10.68 -17.16,-13.38 -13.29,-3.89 -19.97,-9.28 -19.97,-21.49 0,-13.16 9.39,-20.83 24.08,-20.83 9.06,0 15.54,2.15 20.07,5.07 v 9.18 h -3.99 c -3.9,-3.13 -8.53,-5.29 -15.65,-5.29 -9.61,0 -14.25,3.99 -14.25,11.02 0,7.88 5.72,9.93 14.89,12.3 15.45,4.21 22.78,8.64 22.78,22.24 0,14.67 -9.6,22.34 -26.01,22.34 -10.7,0.02 -17.38,-2.57 -23,-6.36"
         id="path24" />
      <rect
         class="cls-2"
         x="570.87"
         y="1127.03"
         width="11.87"
         height="75.57"
         id="rect26" />
      <path
         class="cls-2"
         d="m 630.58,1193.74 c 17.81,0 26.02,-8.08 26.02,-29.03 0,-20.95 -8.21,-28.72 -26.02,-28.72 h -9.6 v 57.75 z m -21.26,-66.71 h 21.58 c 24.51,0 37.79,11.23 37.79,37.57 0,26.34 -13.39,38 -38.11,38 h -21.26 z"
         id="path28" />
      <path
         class="cls-2"
         d="m 702.21,1172.81 h 22.02 l -10.9,-33.36 h -0.22 z m -19.22,26.23 24.94,-72.01 h 12.51 l 24.83,72.01 v 3.56 h -11.12 l -7.02,-21.16 h -27.75 l -6.8,21.16 h -9.6 v -3.56 z"
         id="path30" />
      <path
         class="cls-2"
         d="m 787.96,1193.74 c 17.81,0 26.02,-8.08 26.02,-29.03 0,-20.95 -8.21,-28.72 -26.02,-28.72 h -9.6 v 57.75 z m -21.26,-66.71 h 21.58 c 24.51,0 37.79,11.23 37.79,37.57 0,26.34 -13.39,38 -38.11,38 H 766.7 Z"
         id="path32" />
      <path
         class="cls-2"
         d="m 902.88,1193.74 c 17.81,0 26.02,-8.08 26.02,-29.03 0,-20.95 -8.21,-28.72 -26.02,-28.72 h -9.6 v 57.75 z m -21.26,-66.71 h 21.58 c 24.51,0 37.79,11.23 37.79,37.57 0,26.34 -13.39,38 -38.11,38 h -21.26 z"
         id="path34" />
      <polygon
         class="cls-2"
         points="975.15,1168.27 975.15,1193.74 1010.98,1193.74 1010.98,1202.6 963.49,1202.6 963.49,1127.03 1009.8,1127.03 1009.8,1136.1 975.15,1136.1 975.15,1159.64 1000.51,1159.64 1000.51,1168.27 "
         id="polygon36" />
      <rect
         class="cls-2"
         x="1066.53"
         y="1127.03"
         width="11.87"
         height="75.57"
         id="rect38" />
      <polygon
         class="cls-2"
         points="1150.96,1202.6 1115.24,1142.04 1115.02,1142.04 1115.02,1202.6 1104.98,1202.6 1104.98,1127.03 1118.48,1127.03 1151.4,1182.64 1151.62,1182.64 1151.62,1127.03 1161.77,1127.03 1161.77,1202.6 "
         id="polygon40" />
      <path
         class="cls-2"
         d="m 1184.04,1164.82 c 0,-25.04 14.37,-38.43 35.63,-38.43 9.71,0 15.33,1.94 21.26,5.08 v 9.72 h -4.2 c -3.77,-3.36 -8.42,-5.73 -16.84,-5.73 -14.14,0 -23.42,8.54 -23.42,28.94 0,20.4 7.66,30.33 21.91,30.33 6.7,0 10.58,-1.19 13.71,-2.7 v -19.53 h -12.62 v -8.21 h 24.28 v 33.14 c -6.37,3.46 -14.68,5.83 -25.37,5.83 -21.28,0 -34.34,-13.29 -34.34,-38.44"
         id="path42" />
      <polygon
         class="cls-2"
         points="1280.81,1168.27 1280.81,1193.74 1316.64,1193.74 1316.64,1202.6 1269.15,1202.6 1269.15,1127.03 1315.46,1127.03 1315.46,1136.1 1280.81,1136.1 1280.81,1159.64 1306.17,1159.64 1306.17,1168.27 "
         id="polygon44" />
      <polygon
         class="cls-2"
         points="1384.9,1202.6 1349.17,1142.04 1348.95,1142.04 1348.95,1202.6 1338.92,1202.6 1338.92,1127.03 1352.41,1127.03 1385.34,1182.64 1385.55,1182.64 1385.55,1127.03 1395.71,1127.03 1395.71,1202.6 "
         id="polygon46" />
      <rect
         class="cls-2"
         x="1422.1899"
         y="1127.03"
         width="11.87"
         height="75.57"
         id="rect48" />
      <polygon
         class="cls-2"
         points="1472.3,1168.27 1472.3,1193.74 1508.13,1193.74 1508.13,1202.6 1460.64,1202.6 1460.64,1127.03 1506.95,1127.03 1506.95,1136.1 1472.3,1136.1 1472.3,1159.64 1497.66,1159.64 1497.66,1168.27 "
         id="polygon50" />
      <path
         class="cls-2"
         d="m 1542.18,1162.45 h 10.36 c 10.26,0 15.45,-3.66 15.45,-13.29 0,-9.63 -5.51,-13.17 -15.45,-13.17 h -10.36 z m 14.25,8.52 c -1.07,0.12 -2.26,0.12 -3.56,0.12 h -10.68 v 31.52 h -11.66 v -75.58 h 22.34 c 16.74,0 26.99,6.7 26.99,21.49 0,10.37 -4.53,16.95 -12.41,20.19 l 16.3,30.33 v 3.57 h -10.68 z"
         id="path52" />
      <path
         class="cls-2"
         d="m 1608.93,1121.97 4.64,-10.27 h 11.12 v 3.47 l -9.39,9.5 h -6.37 z m -2.37,5.06 h 11.87 v 75.57 h -11.87 z"
         id="path54" />
      <path
         class="cls-2"
         d="m 1659.26,1172.81 h 22.02 l -10.9,-33.36 h -0.22 z m -19.21,26.23 24.94,-72.01 h 12.51 l 24.83,72.01 v 3.56 h -11.12 l -7.02,-21.16 h -27.75 l -6.8,21.16 h -9.6 v -3.56 z"
         id="path56" />
      <polygon
         class="cls-2"
         points="927.62,1247.98 937.02,1247.98 937.02,1251.76 914.88,1293 914.88,1323.56 903.23,1323.56 903.23,1293.32 880.13,1251.76 880.13,1247.98 890.81,1247.98 909.38,1282.21 909.48,1282.21 "
         id="polygon58" />
      <polygon
         class="cls-2"
         points="985.86,1247.98 1041.03,1247.98 1041.03,1256.84 1019.33,1256.84 1019.33,1323.56 1007.56,1323.56 1007.56,1256.84 985.86,1256.84 "
         id="polygon60" />
      <polygon
         class="cls-2"
         points="1073.99,1289.22 1073.99,1314.69 1109.82,1314.69 1109.82,1323.55 1062.33,1323.55 1062.33,1247.98 1108.64,1247.98 1108.64,1257.05 1073.99,1257.05 1073.99,1280.59 1099.35,1280.59 1099.35,1289.22 "
         id="polygon62" />
      <path
         class="cls-2"
         d="m 1126.82,1285.77 c 0,-24.39 14.9,-38.43 34.55,-38.43 10.79,0 16.19,2.38 21.81,6.04 v 9.18 h -4.54 c -3.56,-3.45 -8.52,-6.26 -16.95,-6.26 -13.71,0 -22.89,10.04 -22.89,29.04 0,19.97 8.09,30.01 22.03,30.01 9.61,0 15.11,-3.78 19.43,-8.21 h 3.78 v 8.96 c -5.18,4.54 -12.75,8.1 -23.65,8.1 -20.08,0 -33.57,-13.92 -33.57,-38.43"
         id="path64" />
      <polygon
         class="cls-2"
         points="1252.4,1323.55 1216.67,1262.99 1216.46,1262.99 1216.46,1323.55 1206.42,1323.55 1206.42,1247.98 1219.91,1247.98 1252.84,1303.59 1253.05,1303.59 1253.05,1247.98 1263.21,1247.98 1263.21,1323.55 "
         id="polygon66" />
      <path
         class="cls-2"
         d="m 1341.83,1285.98 c 0,-20.07 -9.51,-29.9 -22.13,-29.9 -12.62,0 -22.12,9.83 -22.12,29.9 0,20.07 9.39,29.47 22.12,29.47 12.73,0 22.13,-9.38 22.13,-29.47 m -56.35,-0.21 c 0,-24.83 15.76,-38.43 34.22,-38.43 18.46,0 34.11,13.6 34.11,38.43 0,24.83 -15.76,38.43 -34.11,38.43 -18.35,0 -34.22,-13.49 -34.22,-38.43"
         id="path68" />
      <polygon
         class="cls-2"
         points="1376.31,1247.98 1387.97,1247.98 1387.97,1314.7 1421.65,1314.7 1421.65,1323.56 1376.31,1323.56 "
         id="polygon70" />
      <path
         class="cls-2"
         d="m 1490.77,1285.98 c 0,-20.07 -9.51,-29.9 -22.13,-29.9 -12.62,0 -22.12,9.83 -22.12,29.9 0,20.07 9.39,29.47 22.12,29.47 12.73,0 22.13,-9.38 22.13,-29.47 m -56.36,-0.21 c 0,-24.83 15.76,-38.43 34.22,-38.43 18.46,0 34.11,13.6 34.11,38.43 0,24.83 -15.76,38.43 -34.11,38.43 -18.35,0 -34.22,-13.49 -34.22,-38.43"
         id="path72" />
      <path
         class="cls-2"
         d="m 1521.26,1285.77 c 0,-25.04 14.37,-38.43 35.63,-38.43 9.71,0 15.33,1.94 21.26,5.08 v 9.72 h -4.2 c -3.77,-3.36 -8.42,-5.73 -16.84,-5.73 -14.14,0 -23.42,8.54 -23.42,28.94 0,20.4 7.66,30.33 21.92,30.33 6.69,0 10.57,-1.19 13.7,-2.7 v -19.53 h -12.62 v -8.21 h 24.28 v 33.14 c -6.37,3.46 -14.68,5.83 -25.36,5.83 -21.29,0 -34.35,-13.29 -34.35,-38.44"
         id="path74" />
      <path
         class="cls-2"
         d="m 1608.96,1242.91 4.64,-10.26 h 11.13 v 3.46 l -9.39,9.5 h -6.37 v -2.7 z m -2.38,5.07 h 11.87 v 75.57 h -11.87 z"
         id="path76" />
      <path
         class="cls-2"
         d="m 1659.29,1293.76 h 22.02 l -10.9,-33.36 h -0.22 z m -19.22,26.23 24.94,-72.01 h 12.51 l 24.83,72.01 v 3.56 h -11.12 l -7.02,-21.16 h -27.75 l -6.8,21.16 h -9.6 v -3.56 z"
         id="path78" />
    </g>
    <g
       id="g96">
      <path
         class="cls-2"
         d="m 320.55,665.05 h 51.29 v 204.51 c 0,66.22 -33.12,98.04 -88.3,98.04 -55.18,0 -87.65,-35.06 -87.65,-100.64 V 665.05 h 51.29 V 599.48 H 75.78 v 65.57 h 46.75 v 205.81 c 0,110.37 65.57,163.62 161.02,163.62 95.45,0 159.72,-53.25 159.72,-164.92 V 665.05 h 46.74 V 599.48 H 320.55 Z"
         id="path88" />
      <polygon
         class="cls-2"
         points="833.57,721.52 903.04,721.52 903.04,599.47 532.31,599.47 532.31,721.52 601.78,721.52 601.78,663.09 681,663.09 681,968.91 627.75,968.91 627.75,1034.48 807.6,1034.48 807.6,968.91 754.36,968.91 754.36,663.09 833.57,663.09 "
         id="polygon90" />
      <polygon
         class="cls-2"
         points="1196.62,778.66 1067.42,778.66 1067.42,664.39 1194.02,664.39 1194.02,721.52 1264.14,721.52 1264.14,599.47 945.36,599.48 945.36,665.05 994.05,665.05 994.05,968.9 945.36,968.9 945.36,1034.48 1264.14,1034.48 1264.14,912.41 1194.68,912.41 1194.68,969.55 1067.42,969.55 1067.42,840.99 1196.62,840.99 "
         id="polygon92" />
      <path
         class="cls-2"
         d="m 1702.36,667.06 c -19.9,-22.08 -44.45,-39.91 -72.08,-52.53 -17.52,-8.51 -38.09,-14.93 -61.25,-18.35 0,-0.01 -0.01,-0.01 -0.02,-0.01 -2.55,-0.41 -5.12,-0.68 -7.69,-1 -3.45,-0.39 -6.94,-0.76 -10.5,-1.03 -1.21,-0.09 -2.39,-0.2 -3.6,-0.28 -5.17,-0.33 -10.38,-0.55 -15.66,-0.55 -0.18,0 -0.37,0.02 -0.55,0.02 -0.24,0 -0.47,-0.02 -0.72,-0.02 -7.23,0 -14.34,0.35 -21.37,0.95 -1.51,0.15 -3.02,0.3 -4.51,0.46 -3.82,0.38 -7.54,0.95 -11.26,1.47 -104.36,14.66 -177.67,89.15 -185.81,197.46 -0.48,6.65 -0.89,13.35 -0.89,20.25 0,6.9 0.41,13.58 0.89,20.23 8.13,108.31 81.45,182.82 185.81,197.47 3.72,0.52 7.44,1.11 11.26,1.47 1.48,0.16 3,0.32 4.51,0.45 7.03,0.62 14.13,0.96 21.37,0.96 0.25,0 0.48,-0.03 0.72,-0.03 0.19,0 0.38,0.03 0.55,0.03 5.28,0 10.49,-0.23 15.66,-0.56 1.2,-0.07 2.38,-0.18 3.6,-0.27 3.55,-0.27 7.05,-0.65 10.5,-1.03 2.57,-0.32 5.14,-0.6 7.69,-1 0.01,0 0.02,0 0.02,-0.01 23.16,-3.42 43.73,-9.85 61.25,-18.35 27.57,-12.6 52.07,-30.38 71.94,-52.4 h 0.14 v -83.4 h -70.07 v 52.6 c -12.06,9.64 -25.05,17.83 -39.18,23.87 -12.81,5.48 -26.42,9.36 -40.95,11.23 -2.07,0.26 -4.18,0.43 -6.28,0.61 -3.23,0.28 -6.61,0.44 -10.09,0.57 -1.83,0.05 -3.61,0.14 -5.5,0.17 -88.96,-0.67 -147.82,-67.94 -148.11,-152.61 0.29,-84.68 59.15,-151.97 148.11,-152.63 1.89,0.03 3.67,0.14 5.5,0.19 3.48,0.11 6.86,0.28 10.09,0.56 2.1,0.17 4.21,0.35 6.28,0.61 14.53,1.86 28.14,5.75 40.96,11.23 14.12,6.03 27.12,14.22 39.17,23.87 v 52.76 h 70.07 v -83.4 h -0.02 z"
         id="path94" />
    </g>
  </g>
</svg>
